<?xml version="1.0" encoding="UTF-8" standalone="no"?>
<svg width="327px" height="96px" viewBox="0 0 327 96" version="1.1" xmlns="http://www.w3.org/2000/svg" xmlns:xlink="http://www.w3.org/1999/xlink" xmlns:sketch="http://www.bohemiancoding.com/sketch/ns">
    <!-- Generator: Sketch 3.0.1 (7597) - http://www.bohemiancoding.com/sketch -->
    <title>logo</title>
    <description>Created with Sketch.</description>
    <defs></defs>
    <g id="Page-1" stroke="none" stroke-width="1" fill="none" fill-rule="evenodd" sketch:type="MSPage">
        <g id="logo" sketch:type="MSLayerGroup" transform="translate(0.000000, 3.000000)">
            <g id="Stroke-1555" transform="translate(48.000000, 0.000000)" stroke="#FFFFFF" stroke-width="4" sketch:type="MSShapeGroup" stroke-linecap="round" stroke-linejoin="round">
                <path d="M3.99999964,40.6385231 C-11.1296904,40.6385231 19.6757812,40.6385227 19.6757812,40.6385227 L37.7226562,-0.568023652 L58.6757812,40.6385227 L69.6289062,23.3890071 C69.6289062,23.3890071 76.3539548,32.2803186 79.716479,36.7259743 C80.7029131,38.0301571 82.6757812,40.6385227 82.6757812,40.6385227 L88.0000003,40.6385231 C88.0000003,40.6385231 130.842568,40.6385229 85.0000003,40.6385231" id="Stroke-1552"></path>
            </g>
            <path d="M18.788,35.812 L25.437,35.812 L44.042,79 L35.258,79 L31.232,69.118 L12.505,69.118 L8.601,79 L0,79 L18.788,35.812 Z M28.548,62.53 L21.899,44.962 L15.128,62.53 L28.548,62.53 Z M48.19,49.72 L55.144,49.72 L55.144,54.112 L55.266,54.112 C56.3233386,52.3226577 57.7466577,51.0213374 59.536,50.208 C61.3253423,49.3946626 63.2569896,48.988 65.331,48.988 C67.5676778,48.988 69.5806577,49.384496 71.37,50.1775 C73.1593423,50.970504 74.684327,52.0583264 75.945,53.441 C77.205673,54.8236736 78.1613301,56.450324 78.812,58.321 C79.4626699,60.191676 79.788,62.2046559 79.788,64.36 C79.788,66.5153441 79.4423368,68.528324 78.751,70.399 C78.0596632,72.269676 77.0938395,73.8963264 75.8535,75.279 C74.6131605,76.6616736 73.1186754,77.749496 71.37,78.5425 C69.6213246,79.335504 67.7100104,79.732 65.636,79.732 C64.2533264,79.732 63.0333386,79.5896681 61.976,79.305 C60.9186614,79.0203319 59.9833374,78.6543356 59.17,78.207 C58.3566626,77.7596644 57.6653362,77.2818359 57.096,76.7735 C56.5266638,76.2651641 56.0590018,75.7670024 55.693,75.279 L55.51,75.279 L55.51,92.908 L48.19,92.908 L48.19,49.72 Z M72.468,64.36 C72.468,63.2213276 72.2748353,62.1233386 71.8885,61.066 C71.5021647,60.0086614 70.9328371,59.0733374 70.1805,58.26 C69.4281629,57.4466626 68.5233386,56.7960024 67.466,56.308 C66.4086614,55.8199976 65.2090067,55.576 63.867,55.576 C62.5249933,55.576 61.3253386,55.8199976 60.268,56.308 C59.2106614,56.7960024 58.3058371,57.4466626 57.5535,58.26 C56.8011629,59.0733374 56.2318353,60.0086614 55.8455,61.066 C55.4591647,62.1233386 55.266,63.2213276 55.266,64.36 C55.266,65.4986724 55.4591647,66.5966614 55.8455,67.654 C56.2318353,68.7113386 56.8011629,69.6466626 57.5535,70.46 C58.3058371,71.2733374 59.2106614,71.9239976 60.268,72.412 C61.3253386,72.9000024 62.5249933,73.144 63.867,73.144 C65.2090067,73.144 66.4086614,72.9000024 67.466,72.412 C68.5233386,71.9239976 69.4281629,71.2733374 70.1805,70.46 C70.9328371,69.6466626 71.5021647,68.7113386 71.8885,67.654 C72.2748353,66.5966614 72.468,65.4986724 72.468,64.36 Z M86.62,49.72 L93.574,49.72 L93.574,54.112 L93.696,54.112 C94.7533386,52.3226577 96.1766577,51.0213374 97.966,50.208 C99.7553423,49.3946626 101.68699,48.988 103.761,48.988 C105.997678,48.988 108.010658,49.384496 109.8,50.1775 C111.589342,50.970504 113.114327,52.0583264 114.375,53.441 C115.635673,54.8236736 116.59133,56.450324 117.242,58.321 C117.89267,60.191676 118.218,62.2046559 118.218,64.36 C118.218,66.5153441 117.872337,68.528324 117.181,70.399 C116.489663,72.269676 115.52384,73.8963264 114.2835,75.279 C113.04316,76.6616736 111.548675,77.749496 109.8,78.5425 C108.051325,79.335504 106.14001,79.732 104.066,79.732 C102.683326,79.732 101.463339,79.5896681 100.406,79.305 C99.3486614,79.0203319 98.4133374,78.6543356 97.6,78.207 C96.7866626,77.7596644 96.0953362,77.2818359 95.526,76.7735 C94.9566638,76.2651641 94.4890018,75.7670024 94.123,75.279 L93.94,75.279 L93.94,92.908 L86.62,92.908 L86.62,49.72 Z M110.898,64.36 C110.898,63.2213276 110.704835,62.1233386 110.3185,61.066 C109.932165,60.0086614 109.362837,59.0733374 108.6105,58.26 C107.858163,57.4466626 106.953339,56.7960024 105.896,56.308 C104.838661,55.8199976 103.639007,55.576 102.297,55.576 C100.954993,55.576 99.7553386,55.8199976 98.698,56.308 C97.6406614,56.7960024 96.7358371,57.4466626 95.9835,58.26 C95.2311629,59.0733374 94.6618353,60.0086614 94.2755,61.066 C93.8891647,62.1233386 93.696,63.2213276 93.696,64.36 C93.696,65.4986724 93.8891647,66.5966614 94.2755,67.654 C94.6618353,68.7113386 95.2311629,69.6466626 95.9835,70.46 C96.7358371,71.2733374 97.6406614,71.9239976 98.698,72.412 C99.7553386,72.9000024 100.954993,73.144 102.297,73.144 C103.639007,73.144 104.838661,72.9000024 105.896,72.412 C106.953339,71.9239976 107.858163,71.2733374 108.6105,70.46 C109.362837,69.6466626 109.932165,68.7113386 110.3185,67.654 C110.704835,66.5966614 110.898,65.4986724 110.898,64.36 Z M125.05,49.72 L132.37,49.72 L132.37,54.356 L132.492,54.356 C133.305337,52.6479915 134.464326,51.326338 135.969,50.391 C137.473674,49.455662 139.20199,48.988 141.154,48.988 C141.601336,48.988 142.038498,49.0286663 142.4655,49.11 C142.892502,49.1913337 143.329664,49.2929994 143.777,49.415 L143.777,56.491 C143.166997,56.3283325 142.56717,56.1961672 141.9775,56.0945 C141.38783,55.9928328 140.808336,55.942 140.239,55.942 C138.530991,55.942 137.158505,56.2571635 136.1215,56.8875 C135.084495,57.5178365 134.291503,58.2396626 133.7425,59.053 C133.193497,59.8663374 132.827501,60.6796626 132.6445,61.493 C132.461499,62.3063374 132.37,62.9163313 132.37,63.323 L132.37,79 L125.05,79 L125.05,49.72 Z M146.217,64.36 C146.217,62.0419884 146.633829,59.9375095 147.4675,58.0465 C148.301171,56.1554905 149.42966,54.5390067 150.853,53.197 C152.27634,51.8549933 153.96399,50.8180037 155.916,50.086 C157.86801,49.3539963 159.941989,48.988 162.138,48.988 C164.334011,48.988 166.40799,49.3539963 168.36,50.086 C170.31201,50.8180037 171.99966,51.8549933 173.423,53.197 C174.84634,54.5390067 175.974829,56.1554905 176.8085,58.0465 C177.642171,59.9375095 178.059,62.0419884 178.059,64.36 C178.059,66.6780116 177.642171,68.7824905 176.8085,70.6735 C175.974829,72.5645095 174.84634,74.1809933 173.423,75.523 C171.99966,76.8650067 170.31201,77.9019963 168.36,78.634 C166.40799,79.3660037 164.334011,79.732 162.138,79.732 C159.941989,79.732 157.86801,79.3660037 155.916,78.634 C153.96399,77.9019963 152.27634,76.8650067 150.853,75.523 C149.42966,74.1809933 148.301171,72.5645095 147.4675,70.6735 C146.633829,68.7824905 146.217,66.6780116 146.217,64.36 Z M153.537,64.36 C153.537,65.4986724 153.730165,66.5966614 154.1165,67.654 C154.502835,68.7113386 155.072163,69.6466626 155.8245,70.46 C156.576837,71.2733374 157.481661,71.9239976 158.539,72.412 C159.596339,72.9000024 160.795993,73.144 162.138,73.144 C163.480007,73.144 164.679661,72.9000024 165.737,72.412 C166.794339,71.9239976 167.699163,71.2733374 168.4515,70.46 C169.203837,69.6466626 169.773165,68.7113386 170.1595,67.654 C170.545835,66.5966614 170.739,65.4986724 170.739,64.36 C170.739,63.2213276 170.545835,62.1233386 170.1595,61.066 C169.773165,60.0086614 169.203837,59.0733374 168.4515,58.26 C167.699163,57.4466626 166.794339,56.7960024 165.737,56.308 C164.679661,55.8199976 163.480007,55.576 162.138,55.576 C160.795993,55.576 159.596339,55.8199976 158.539,56.308 C157.481661,56.7960024 156.576837,57.4466626 155.8245,58.26 C155.072163,59.0733374 154.502835,60.0086614 154.1165,61.066 C153.730165,62.1233386 153.537,63.2213276 153.537,64.36 Z M180.926,49.72 L188.856,49.72 L195.2,70.216 L195.322,70.216 L201.239,49.72 L209.169,49.72 L215.513,70.216 L215.635,70.216 L221.735,49.72 L229.116,49.72 L219.173,79 L211.914,79 L204.96,58.992 L204.838,58.992 L198.677,79 L191.113,79 L180.926,49.72 Z M251.747,74.974 L251.564,74.974 C250.506661,76.6413417 249.164675,77.8511629 247.538,78.6035 C245.911325,79.3558371 244.12201,79.732 242.17,79.732 C240.827993,79.732 239.516506,79.5490018 238.2355,79.183 C236.954494,78.8169982 235.815838,78.2680037 234.8195,77.536 C233.823162,76.8039963 233.020003,75.8890055 232.41,74.791 C231.799997,73.6929945 231.495,72.4120073 231.495,70.948 C231.495,69.3619921 231.779664,68.0098389 232.349,66.8915 C232.918336,65.7731611 233.680829,64.8378371 234.6365,64.0855 C235.592171,63.3331629 236.700327,62.7333356 237.961,62.286 C239.221673,61.8386644 240.53316,61.5031678 241.8955,61.2795 C243.25784,61.0558322 244.630326,60.9135003 246.013,60.8525 C247.395674,60.7914997 248.696994,60.761 249.917,60.761 L251.747,60.761 L251.747,59.968 C251.747,58.1379909 251.116673,56.7655046 249.856,55.8505 C248.595327,54.9354954 246.98901,54.478 245.037,54.478 C243.491659,54.478 242.048007,54.7524973 240.706,55.3015 C239.363993,55.8505027 238.205005,56.592662 237.229,57.528 L233.386,53.685 C235.012675,52.0176583 236.913822,50.8180037 239.0895,50.086 C241.265178,49.3539963 243.511988,48.988 245.83,48.988 C247.90401,48.988 249.65266,49.221831 251.076,49.6895 C252.49934,50.157169 253.678662,50.7569963 254.614,51.489 C255.549338,52.2210037 256.271164,53.0648286 256.7795,54.0205 C257.287836,54.9761714 257.653832,55.9419951 257.8775,56.918 C258.101168,57.8940049 258.233333,58.8394954 258.274,59.7545 C258.314667,60.6695046 258.335,61.4726632 258.335,62.164 L258.335,79 L251.747,79 L251.747,74.974 Z M251.32,65.885 L249.795,65.885 C248.778328,65.885 247.639673,65.9256663 246.379,66.007 C245.118327,66.0883337 243.928839,66.2814985 242.8105,66.5865 C241.692161,66.8915015 240.746671,67.3388304 239.974,67.9285 C239.201329,68.5181696 238.815,69.3416614 238.815,70.399 C238.815,71.0903368 238.967498,71.669831 239.2725,72.1375 C239.577502,72.605169 239.973998,73.001665 240.462,73.327 C240.950002,73.652335 241.498997,73.886166 242.109,74.0285 C242.719003,74.170834 243.328997,74.242 243.939,74.242 C246.460346,74.242 248.320827,73.6421727 249.5205,72.4425 C250.720173,71.2428273 251.32,69.6060104 251.32,67.532 L251.32,65.885 Z M262.239,49.72 L270.23,49.72 L278.038,70.216 L278.16,70.216 L286.029,49.72 L293.532,49.72 L282.003,79 L274.195,79 L262.239,49.72 Z M303.719,66.922 C303.963001,69.118011 304.816993,70.8259939 306.281,72.046 C307.745007,73.2660061 309.51399,73.876 311.588,73.876 C313.418009,73.876 314.95316,73.4998371 316.1935,72.7475 C317.43384,71.9951629 318.521662,71.0496724 319.457,69.911 L324.703,73.876 C322.994991,75.9906772 321.083677,77.4953289 318.969,78.39 C316.854323,79.2846711 314.638012,79.732 312.32,79.732 C310.123989,79.732 308.05001,79.3660037 306.098,78.634 C304.14599,77.9019963 302.45834,76.8650067 301.035,75.523 C299.61166,74.1809933 298.483171,72.5645095 297.6495,70.6735 C296.815829,68.7824905 296.399,66.6780116 296.399,64.36 C296.399,62.0419884 296.815829,59.9375095 297.6495,58.0465 C298.483171,56.1554905 299.61166,54.5390067 301.035,53.197 C302.45834,51.8549933 304.14599,50.8180037 306.098,50.086 C308.05001,49.3539963 310.123989,48.988 312.32,48.988 C314.353344,48.988 316.213825,49.3438298 317.9015,50.0555 C319.589175,50.7671702 321.032827,51.7939933 322.2325,53.136 C323.432173,54.4780067 324.367497,56.1351568 325.0385,58.1075 C325.709503,60.0798432 326.045,62.3469872 326.045,64.909 L326.045,66.922 L303.719,66.922 Z M318.725,61.432 C318.684333,59.2766559 318.01334,57.5788395 316.712,56.3385 C315.41066,55.0981605 313.601012,54.478 311.283,54.478 C309.086989,54.478 307.348506,55.108327 306.0675,56.369 C304.786494,57.629673 304.003668,59.3173228 303.719,61.432 L318.725,61.432 Z" id="Approwave" fill="#FFFFFF" sketch:type="MSShapeGroup"></path>
        </g>
    </g>
</svg>
